<svg id="Layer_2" data-name="Layer 2" xmlns="http://www.w3.org/2000/svg" viewBox="0 0 208.44 138.58"><defs><style>.cls-1,.cls-2,.cls-3{fill:none;stroke:#000;stroke-width:6px;}.cls-1,.cls-3{stroke-miterlimit:10;}.cls-2,.cls-3{stroke-linecap:round;}.cls-2{stroke-linejoin:round;}</style></defs><path class="cls-1" d="M48,154.5,20.45,36.19s-1.29-6,3.43-7.37,7.29,1.57,8.07,3.74S61.09,153.5,61.09,153.5" transform="translate(-17.29 -16.6)"/><path class="cls-1" d="M195,154.5,222.57,37.19s1.3-6-3.43-7.37-7.28,1.57-8.07,3.74S181.93,153.5,181.93,153.5" transform="translate(-17.29 -16.6)"/><path class="cls-1" d="M33.1,37.1s82.39-39.37,176.6,0" transform="translate(-17.29 -16.6)"/><path class="cls-1" d="M47.92,99.53s68.6-33.27,147.42,0" transform="translate(-17.29 -16.6)"/><polyline class="cls-2" points="53.34 26.11 41.65 29.3 45.49 43.88 49.35 58.53 59.99 55.61"/><line class="cls-3" x1="56.53" y1="40.99" x2="45.49" y2="43.88"/><polyline class="cls-2" points="110.72 20.18 98.6 20.45 98.8 35.53 99.01 50.68 110.03 50.41"/><line class="cls-3" x1="110.21" y1="35.39" x2="98.8" y2="35.53"/><polyline class="cls-2" points="65.5 23.49 81.05 51.85 86.5 20.5"/><polyline class="cls-2" points="122.85 50.92 126.63 20.5 139.68 53.22 143.31 22.38"/><line class="cls-2" x1="151.88" y1="24.51" x2="173.94" y2="29.56"/><line class="cls-2" x1="156.13" y1="57.21" x2="162.91" y2="27.04"/></svg>