<?xml version="1.0" encoding="utf-8"?>
<!-- Generator: Adobe Illustrator 24.1.0, SVG Export Plug-In . SVG Version: 6.00 Build 0)  -->
<svg version="1.1" id="Layer_2_1_" xmlns="http://www.w3.org/2000/svg" xmlns:xlink="http://www.w3.org/1999/xlink" x="0px" y="0px"
	 viewBox="0 0 208.4 140.9" style="enable-background:new 0 0 208.4 140.9;" xml:space="preserve">
<style type="text/css">
	.st0{fill:none;stroke:#000000;stroke-width:7;stroke-miterlimit:10;}
	.st1{fill:none;stroke:#000000;stroke-width:6;stroke-linecap:round;stroke-linejoin:round;}
	.st2{fill:none;stroke:#000000;stroke-width:6;stroke-linecap:round;stroke-miterlimit:10;}
</style>
<path d="M30.7,139.3L3.2,20.9c0,0-1.3-6,3.4-7.4s7.3,1.6,8.1,3.7s29.1,120.9,29.1,120.9"/>
<path d="M177.7,139.3l27.6-117.3c0,0,1.3-6-3.4-7.4c-4.7-1.4-7.3,1.6-8.1,3.7s-29.1,119.9-29.1,119.9"/>
<path class="st0" d="M13.9,22.9c0,0,85.3-39.4,182.8,0"/>
<path class="st0" d="M30.6,85.3c0,0,68.6-33.3,147.4,0"/>
<polyline class="st1" points="53.3,28.5 41.7,31.7 45.5,46.2 49.3,60.9 60,58 "/>
<line class="st2" x1="56.5" y1="43.3" x2="45.5" y2="46.2"/>
<polyline class="st1" points="110.7,22.5 98.6,22.8 98.8,37.9 99,53 110,52.8 "/>
<line class="st2" x1="110.2" y1="37.7" x2="98.8" y2="37.9"/>
<polyline class="st1" points="65.5,25.8 81.1,54.2 86.5,22.9 "/>
<polyline class="st1" points="122.8,53.3 126.6,22.9 139.7,55.6 143.3,24.7 "/>
<line class="st1" x1="151.9" y1="26.9" x2="173.9" y2="31.9"/>
<line class="st1" x1="156.1" y1="59.6" x2="162.9" y2="29.4"/>
</svg>
