<svg xmlns="http://www.w3.org/2000/svg" viewBox="0 0 542.12 422.08"><title>logo</title><g id="Layer_2" data-name="Layer 2"><g id="Moustache"><path d="M273.22,356.62a27.45,27.45,0,0,0-1,17.17c2.07,7.57,7.77,13.86,14.68,17.41,8.44,4.33,17.24,2.91,26.33,3.58,5.2.38,10.65.82,15.83,1.72a71.76,71.76,0,0,1,29,11.67,88.28,88.28,0,0,1,8.12,6.57c2.41,2.2,4.63,5.35,7.28,7.14a18,18,0,0,0-.17-4.2c-1-24.1-15.71-47.47-35.7-60.39a82.42,82.42,0,0,0-8.64-4.87c-1.2-.59-2.41-1.14-3.63-1.67-11-4.77-22.93-8.43-35-6.73C282.42,345.15,276.34,348.94,273.22,356.62Z"/><path d="M265.85,356.82a27.38,27.38,0,0,1,1,17.17c-2.07,7.57-7.77,13.86-14.69,17.4-8.43,4.33-17.24,2.92-26.32,3.59-5.21.38-10.65.82-15.83,1.72a71.7,71.7,0,0,0-29,11.67,87,87,0,0,0-8.12,6.57c-2.41,2.2-4.64,5.35-7.28,7.14-.28-1.3.11-2.85.16-4.2,1-24.1,15.72-47.47,35.71-60.4a84.17,84.17,0,0,1,8.64-4.86c1.2-.59,2.41-1.14,3.63-1.68,11-4.76,22.93-8.42,35-6.72C256.66,345.35,262.74,349.14,265.85,356.82Z"/></g><g id="Hat"><path d="M537.54,200.87a83.47,83.47,0,0,1-11.12,23.66c-9.92,14.41-24.52,24.54-40.43,31.4-37.89,16.34-82.11,18.38-123,19.95q-45.78,1.75-91.57,1.66h-.66q-45.78.09-91.57-1.66c-40.92-1.57-85.14-3.61-123-19.95-15.91-6.86-30.51-17-40.43-31.4A83.47,83.47,0,0,1,4.58,200.87c-.75-2.54-5.3-29.46-4.48-29.28,50.78,11.11,109.64,15.12,178,10,4.56-35.4,11-71.18,24-104.57,7.19-18.57,16.62-36.74,30.17-51.5.58-.63,1.16-1.25,1.75-1.87s1.24-1.29,1.87-1.92,1.3-1.29,2-1.92,1.36-1.3,2.05-1.94S241.29,16.58,242,16s1.47-1.27,2.22-1.89,1.52-1.24,2.29-1.85,1.56-1.2,2.35-1.78,1.6-1.16,2.41-1.72,1.63-1.1,2.46-1.62,1.66-1,2.51-1.52C261,2.8,266.86-.42,272.57,0c3.76.31,7.1,2.23,10.32,4a96.07,96.07,0,0,1,9.48,5.71,115.17,115.17,0,0,1,17.51,15.73c13.55,14.76,23,32.93,30.17,51.5,12.94,33.39,19.41,69.17,24,104.57,68.36,5.12,127.22,1.11,178-10C542.84,171.41,538.29,198.33,537.54,200.87Z"/></g></g></svg>