<svg xmlns="http://www.w3.org/2000/svg" viewBox="0 0 512 512"><defs><style>.cls-1{fill:#de7f43;}</style></defs><title>loupe_orange</title><g id="Layer_2" data-name="Layer 2"><g id="Capa_1" data-name="Capa 1"><path class="cls-1" d="M225.47,0C101.15,0,0,101.15,0,225.47S101.15,451,225.47,451,451,349.8,451,225.47,349.8,0,225.47,0Zm0,409.32c-101.37,0-183.84-82.47-183.84-183.85S124.1,41.63,225.47,41.63,409.32,124.1,409.32,225.47,326.85,409.32,225.47,409.32Z"/><path class="cls-1" d="M505.9,476.47,386.57,357.14a20.81,20.81,0,0,0-29.43,29.43L476.47,505.9a20.81,20.81,0,0,0,29.43-29.43Z"/></g></g></svg>