<svg xmlns="http://www.w3.org/2000/svg" viewBox="0 0 13.66 18.77"><defs><style>.cls-1{fill:#de7f43;}</style></defs><title>medal_orange</title><g id="Layer_2" data-name="Layer 2"><g id="Layer_1-2" data-name="Layer 1"><g id="medal"><path id="Path_49" data-name="Path 49" class="cls-1" d="M2.17,7.86C2,6.77,2,7,1.86,7.09S1.35,7,1.54,8a5.46,5.46,0,1,0-.12-1.15c.05,1.4.12.82.27.82s.45.59.35-.82A4.68,4.68,0,0,1,6.69,2.14h0a.43.43,0,0,1,.16,0,4.72,4.72,0,1,1-3,8.36A4.21,4.21,0,0,1,2.17,7.86Z"/><path id="Path_50" data-name="Path 50" class="cls-1" d="M9.76,6.85a.81.81,0,0,0,0-1.14.75.75,0,0,0-.46-.23L8.24,5.32A.22.22,0,0,1,8,5.18l-.49-1a.8.8,0,0,0-1.07-.37h0a.76.76,0,0,0-.36.37l-.49,1a.22.22,0,0,1-.18.14l-1.08.16a.8.8,0,0,0-.68.9.82.82,0,0,0,.24.47l.77.76a.27.27,0,0,1,.08.22L4.61,8.9a.81.81,0,0,0,.65.93.85.85,0,0,0,.52-.08l1-.51a.24.24,0,0,1,.23,0l1,.51a.82.82,0,0,0,1-.34.83.83,0,0,0,.08-.51l-.2-1.07A.27.27,0,0,1,9,7.61ZM8.6,7.21a.82.82,0,0,0-.23.71L8.55,9a.24.24,0,0,1-.18.29H8.19l-1-.51a.83.83,0,0,0-.75,0l-1,.51A.26.26,0,0,1,5.1,9.2.22.22,0,0,1,5.1,9l.24-1.12a.82.82,0,0,0-.23-.71l-.78-.76a.24.24,0,0,1,0-.35A.29.29,0,0,1,4.47,6l1.07-.15a.8.8,0,0,0,.6-.44l.48-1A.26.26,0,0,1,7,4.32a.25.25,0,0,1,.12.11l.48,1a.8.8,0,0,0,.6.44L9.23,6a.25.25,0,0,1,.21.28h0a.27.27,0,0,1-.07.14Z"/><path id="Path_51" data-name="Path 51" class="cls-1" d="M11.61,13.39a.27.27,0,0,0-.34-.17h0a.27.27,0,0,0-.17.34h0l1.12,3.21-1.89-.2a.27.27,0,0,0-.22.08L8.74,18l-1.5-4.33a6.79,6.79,0,0,0,3.47-1.19l.44,1.29a.27.27,0,0,0,.35.16h0a.27.27,0,0,0,.17-.34h0l-.5-1.45a6.82,6.82,0,0,0,2-7.81C12.82,3.51,12.43,3,12.29,3s.34,1.32.4,1.46A6.27,6.27,0,1,1,10,1.4,8.31,8.31,0,0,1,12.46,4c.22.48.25.17.38.09s.66.82.09-.37A9,9,0,0,0,10.24.92a6.82,6.82,0,0,0-7.7,11.21L.84,17a.28.28,0,0,0,.19.35h.1l2.19-.22,1.57,1.53a.27.27,0,0,0,.39,0h0v-.09l1.52-4.35,1.51,4.35a.29.29,0,0,0,.36.16l.09-.06,1.58-1.53,2.18.22a.27.27,0,0,0,.3-.24h0a.21.21,0,0,0,0-.11ZM5,18,3.61,16.66a.27.27,0,0,0-.22-.08l-1.89.2L3,12.47A6.76,6.76,0,0,0,6.5,13.66Z"/></g></g></g></svg>