<svg id="Layer_1" data-name="Layer 1" xmlns="http://www.w3.org/2000/svg" viewBox="0 0 13.64 18.73"><defs><style>.cls-1{fill:#de7f43;}</style></defs><g id="medal"><path id="Path_49" data-name="Path 49" class="cls-1" d="M2.14,7.84C1.93,6.75,2,7,1.83,7.07s-.51-.13-.32.91a5.46,5.46,0,1,0-.12-1.15c.05,1.4.12.82.27.82s.45.59.35-.82A4.68,4.68,0,0,1,6.66,2.12a.86.86,0,0,1,.16,0,4.72,4.72,0,1,1-3,8.36A4.22,4.22,0,0,1,2.14,7.84Z" transform="translate(-0.01 -0.01)"/><path id="Path_50" data-name="Path 50" class="cls-1" d="M9.73,6.83a.81.81,0,0,0,0-1.14.78.78,0,0,0-.46-.23L8.21,5.3A.22.22,0,0,1,8,5.16l-.49-1a.8.8,0,0,0-1.07-.37.76.76,0,0,0-.36.37l-.49,1a.22.22,0,0,1-.18.14l-1.08.16a.8.8,0,0,0-.44,1.37l.77.76a.25.25,0,0,1,.08.22L4.58,8.88a.81.81,0,0,0,.65.93.85.85,0,0,0,.52-.08l1-.51a.24.24,0,0,1,.23,0l1,.51A.82.82,0,0,0,9,9.39a.8.8,0,0,0,.08-.51L8.88,7.81A.28.28,0,0,1,9,7.59Zm-1.16.36a.82.82,0,0,0-.23.71L8.52,9a.24.24,0,0,1-.2.29.29.29,0,0,1-.16,0l-1-.51a.83.83,0,0,0-.75,0l-1,.51a.26.26,0,0,1-.34-.11.22.22,0,0,1,0-.16L5.31,7.9a.82.82,0,0,0-.23-.71L4.3,6.43a.25.25,0,0,1,0-.35A.28.28,0,0,1,4.44,6l1.07-.15a.81.81,0,0,0,.6-.44l.48-1a.26.26,0,0,1,.34-.11.25.25,0,0,1,.12.11l.48,1a.81.81,0,0,0,.6.44L9.2,6a.25.25,0,0,1,.21.29.21.21,0,0,1-.07.14Z" transform="translate(-0.01 -0.01)"/><path id="Path_51" data-name="Path 51" class="cls-1" d="M11.58,13.37a.27.27,0,0,0-.35-.17.27.27,0,0,0-.17.35h0l1.12,3.21-1.89-.2a.27.27,0,0,0-.22.08L8.71,18l-1.5-4.33a6.79,6.79,0,0,0,3.47-1.19l.44,1.29a.27.27,0,0,0,.35.16.27.27,0,0,0,.17-.35h0l-.5-1.45a6.82,6.82,0,0,0,2-7.81C12.79,3.49,12.4,3,12.26,3s.34,1.32.4,1.46A6.27,6.27,0,1,1,9.94,1.38,8.29,8.29,0,0,1,12.43,4c.22.48.25.17.38.09s.66.82.09-.37A8.82,8.82,0,0,0,10.21.9a6.82,6.82,0,0,0-7.7,11.21L.81,17a.28.28,0,0,0,.19.35.17.17,0,0,0,.1,0l2.19-.22,1.57,1.53a.28.28,0,0,0,.4,0,.41.41,0,0,0,0-.09l1.52-4.35,1.51,4.35a.28.28,0,0,0,.36.16.24.24,0,0,0,.09-.06l1.58-1.53,2.18.22a.27.27,0,0,0,.3-.25.2.2,0,0,0,0-.11ZM4.93,18,3.58,16.64a.27.27,0,0,0-.22-.08l-1.89.2L3,12.45a6.79,6.79,0,0,0,3.47,1.19Z" transform="translate(-0.01 -0.01)"/></g></svg>