<svg xmlns="http://www.w3.org/2000/svg" viewBox="0 0 512 512"><defs><style>.cls-1{fill:#de7f43;}</style></defs><title>user_orange</title><g id="Layer_2" data-name="Layer 2"><g id="Layer_1-2" data-name="Layer 1"><path class="cls-1" d="M471.39,325c-17-14.91-37.55-27.79-61.17-38.29A20,20,0,0,0,394,323.28c19.91,8.85,37.08,19.54,51,31.78A79.74,79.74,0,0,1,472,415v37a20,20,0,0,1-20,20H60a20,20,0,0,1-20-20V415a79.74,79.74,0,0,1,27-59.94C87.22,337.3,146.1,296,256,296c81.61,0,148-66.39,148-148S337.61,0,256,0,108,66.39,108,148a147.84,147.84,0,0,0,57.85,117.29C101.52,279.43,61.51,306.65,40.61,325A119.75,119.75,0,0,0,0,415v37a60.06,60.06,0,0,0,60,60H452a60.06,60.06,0,0,0,60-60V415A119.75,119.75,0,0,0,471.39,325ZM148,148A108,108,0,1,1,256,256,108.12,108.12,0,0,1,148,148Z"/></g></g></svg>