<svg xmlns="http://www.w3.org/2000/svg" viewBox="0 0 80.59 83.04"><defs><style>.cls-1,.cls-2{fill:none;}.cls-1,.cls-2,.cls-3{stroke:#de7f43;}.cls-1,.cls-2,.cls-3,.cls-5{stroke-miterlimit:10;}.cls-1{stroke-width:5px;}.cls-3{fill:#fff;stroke-width:2px;}.cls-4,.cls-5{fill:#de7f43;}.cls-5{stroke:#fff;}</style></defs><title>wheel_orange</title><g id="Layer_2" data-name="Layer 2"><g id="Layer_3" data-name="Layer 3"><circle class="cls-1" cx="39.02" cy="39.02" r="36.52"/><line class="cls-2" x1="19.93" y1="8.29" x2="56.82" y2="70.31"/><line class="cls-2" x1="7.02" y1="20.94" x2="70.45" y2="58.68"/><line class="cls-2" x1="38.74" y1="3.43" x2="38.37" y2="75.9"/><line class="cls-2" x1="56.82" y1="7.88" x2="20.51" y2="72.17"/><line class="cls-2" x1="5.73" y1="57.68" x2="71.17" y2="21.37"/><line class="cls-2" x1="76.05" y1="39.3" x2="1.85" y2="40.03"/><circle class="cls-3" cx="39.02" cy="39.5" r="12.56"/><circle class="cls-4" cx="39.02" cy="39.5" r="8.43"/><path class="cls-5" d="M64.1,32s-.41-.37,4.32-1.88S77.66,26.12,79,27.22a2.64,2.64,0,0,1,.89,3,2.67,2.67,0,0,1-2.1,1.38c-1.37.17-11,1.61-11,1.61s-2,.38-2.47,0S64.1,32,64.1,32Z"/><rect class="cls-4" x="28.78" y="75.47" width="20.34" height="7.57"/></g></g></svg>