<svg id="Layer_3" data-name="Layer 3" xmlns="http://www.w3.org/2000/svg" viewBox="0 0 80.59 83.03"><defs><style>.cls-1,.cls-2{fill:none;}.cls-1{stroke:#09090a;stroke-width:5px;}.cls-1,.cls-2,.cls-3,.cls-5{stroke-miterlimit:10;}.cls-2,.cls-3{stroke:#020202;}.cls-3{fill:#fff;stroke-width:2px;}.cls-4,.cls-5{fill:#020202;}.cls-5{stroke:#fff;}</style></defs><circle class="cls-1" cx="39.02" cy="39.02" r="36.52"/><line class="cls-2" x1="19.93" y1="8.29" x2="56.82" y2="70.31"/><line class="cls-2" x1="7.02" y1="20.94" x2="70.45" y2="58.68"/><line class="cls-2" x1="38.74" y1="3.43" x2="38.37" y2="75.9"/><line class="cls-2" x1="56.82" y1="7.88" x2="20.51" y2="72.17"/><line class="cls-2" x1="5.73" y1="57.68" x2="71.17" y2="21.37"/><line class="cls-2" x1="76.05" y1="39.3" x2="1.85" y2="40.03"/><circle class="cls-3" cx="39.02" cy="39.5" r="12.56"/><circle class="cls-4" cx="39.02" cy="39.5" r="8.43"/><path class="cls-5" d="M100.49,59.89s-.41-.37,4.32-1.88,9.24-3.95,10.62-2.85a2.64,2.64,0,0,1,.89,3,2.68,2.68,0,0,1-2.1,1.38c-1.37.17-11,1.61-11,1.61s-2,.38-2.47,0S100.49,59.89,100.49,59.89Z" transform="translate(-36.39 -27.94)"/><rect class="cls-4" x="28.78" y="75.47" width="20.34" height="7.57"/></svg>